<svg xmlns="http://www.w3.org/2000/svg" xmlns:xlink="http://www.w3.org/1999/xlink" width="560.013" height="137.014" viewBox="0 0 560.013 137.014">
  <defs>
    <filter id="LIVIERI_PHOTO" x="77.013" y="8.014" width="483" height="129" filterUnits="userSpaceOnUse">
      <feOffset dx="3" dy="3" input="SourceAlpha"/>
      <feGaussianBlur stdDeviation="3" result="blur"/>
      <feFlood flood-opacity="0.816"/>
      <feComposite operator="in" in2="blur"/>
      <feComposite in="SourceGraphic"/>
    </filter>
  </defs>
  <g id="Group_35" data-name="Group 35" transform="translate(-142.987 -48.986)">
    <g transform="matrix(1, 0, 0, 1, 142.99, 48.99)" filter="url(#LIVIERI_PHOTO)">
      <text id="LIVIERI_PHOTO-2" data-name="LIVIERI PHOTO" transform="translate(83.01 103.01)" fill="#fff" font-size="75" font-family="OswaldHeavy-Regular, Oswald Heavy" letter-spacing="0.005em"><tspan x="0" y="0">LIVIERI PHOTO</tspan></text>
    </g>
    <g id="Layer_2" data-name="Layer 2" transform="translate(142.987 48.986)">
      <g id="Layer_2-2" data-name="Layer 2">
        <path id="Path_5" data-name="Path 5" d="M51.507,0V33.651H0V5.494A5.494,5.494,0,0,1,5.494,0Z" fill="#fff"/>
        <path id="Path_6" data-name="Path 6" d="M89.007,5.494V33.651H37.5V0H83.513A5.494,5.494,0,0,1,89.007,5.494Z" transform="translate(14.007)" fill="#fff"/>
        <path id="Path_7" data-name="Path 7" d="M51.507,27V92.928H5.494A5.357,5.357,0,0,1,0,87.709V27Z" transform="translate(0 10.085)" fill="#fff"/>
        <circle id="Ellipse_3" data-name="Ellipse 3" cx="25.41" cy="25.41" r="25.41" transform="translate(25.41 39.145)" fill="none" stroke="#fff" stroke-miterlimit="10" stroke-width="3"/>
        <ellipse id="Ellipse_4" data-name="Ellipse 4" cx="19" cy="19.5" rx="19" ry="19.5" transform="translate(32.013 45.014)" stroke="#fff" stroke-miterlimit="10" stroke-width="1"/>
        <rect id="Rectangle_19" data-name="Rectangle 19" width="15.109" height="15.109" transform="translate(80.35 7.554)" fill="#fff"/>
        <path id="Path_8" data-name="Path 8" d="M73.109,6.374V20.109H59.374V6.374H73.109M73.933,5H58.549A.549.549,0,0,0,58,5.549V20.933a.549.549,0,0,0,.549.549H73.933a.549.549,0,0,0,.549-.549V5.549A.549.549,0,0,0,73.933,5Z" transform="translate(21.664 1.868)"/>
        <rect id="Rectangle_20" data-name="Rectangle 20" width="87.905" height="15.109" transform="translate(7.554 7.554)"/>
        <path id="Path_9" data-name="Path 9" d="M92.9,6.374V20.109H6.374V6.374H92.9M93.729,5H5.549A.549.549,0,0,0,5,5.549V20.933a.549.549,0,0,0,.549.549H93.729a.549.549,0,0,0,.549-.549V5.549A.549.549,0,0,0,93.729,5Z" transform="translate(1.868 1.868)"/>
        <rect id="Rectangle_21" data-name="Rectangle 21" width="15.109" height="15.109" rx="3.5" transform="translate(80.35 7.554)" fill="#fff"/>
        <path id="Path_10" data-name="Path 10" d="M68.988,6.374a4.121,4.121,0,0,1,4.121,4.121v5.494a4.121,4.121,0,0,1-4.121,4.121H63.494a4.121,4.121,0,0,1-4.121-4.121V10.494a4.121,4.121,0,0,1,4.121-4.121h5.494m0-1.374H63.494A5.494,5.494,0,0,0,58,10.494v5.494a5.494,5.494,0,0,0,5.494,5.494h5.494a5.494,5.494,0,0,0,5.494-5.494V10.494A5.494,5.494,0,0,0,68.988,5Z" transform="translate(21.664 1.868)"/>
        <line id="Line_1" data-name="Line 1" x2="103" transform="translate(0.013 33.014)" fill="none" stroke="#000" stroke-miterlimit="10" stroke-width="3"/>
        <path id="Path_11" data-name="Path 11" d="M30.43,39.656l1.992-1.676,2.5,4.986Z" transform="translate(11.366 14.186)" fill="#fff"/>
        <path id="Path_12" data-name="Path 12" d="M32.519,39.386l.824,1.648-1.5-1.085.673-.563M32.9,37.2,29.58,39.949l7.5,5.494L32.959,37.12Z" transform="translate(11.048 13.865)" fill="#fff"/>
      </g>
    </g>
  </g>
</svg>
