<svg xmlns="http://www.w3.org/2000/svg" viewBox="0 0 357 161.41"><defs><style>.cls-1{fill:#171717; opacity: .75;}</style></defs><g id="Layer_2" data-name="Layer 2"><g id="Layer_1-2" data-name="Layer 1"><path class="cls-1" d="M0,17.24C0,7.3,4.58,0,14.9,0,25.42,0,30,7.3,30,17.24V52.11c0,9.94-4.58,17.24-15.1,17.24C4.58,69.35,0,62.05,0,52.11ZM5,52.37C5,59.76,7.92,65.2,15.4,65.2S26,59.76,26,52.37V17C26,9.59,23,4.15,15.4,4.15S5,9.59,5,17Z"/><path class="cls-1" d="M58,68.5V1.5h4v63H84v4Z"/><path class="cls-1" d="M115,1.5v67h-4V1.5Z"/><path class="cls-1" d="M146.87,1.5l13.59,61.93L174.05,1.5h4.12l-14.55,67h-6.51l-14.74-67Z"/><path class="cls-1" d="M210,1.5v67h-4V1.5Z"/><path class="cls-1" d="M261,32.5v4H243v28h21v4H238V1.5h26v4H243v27Z"/><path class="cls-1" d="M306.81,1.5C316.93,1.5,321,7.15,321,16.62v5.84c0,7.85-3,12.35-9.55,13.88C318.26,37.87,321,42.75,321,50V60.46c0,2.78.19,5.84,1.61,8h-4.14c-1.18-2-1.47-4.41-1.47-8V49.91c0-8.92-5-11.41-12.84-11.41H297v30h-4V1.5Zm-2.55,33c8,0,12.74-2.2,12.74-11.2V17c0-7.18-2.84-11.49-10.29-11.49H297v29Z"/><path class="cls-1" d="M354,1.5v67h-4V1.5Z"/><path class="cls-1" d="M27,105.8v3.36c0,11.19-6.48,16.34-15.06,16.34H7v34H3v-70h8.92C20.5,89.5,27,94.42,27,105.8Zm-4,.31c0-9.59-4.82-13.61-11.4-13.61H7v30h4.6c6.58,0,11.4-3.9,11.4-13.61Z"/><path class="cls-1" d="M112,117.47v42h-4V117.92c0-7.26-2.59-11.11-7.56-11.11S93,111.32,93,117.92V160.5H89v-73h4v23h.11c.79-3.1,3.37-7.3,8.66-7.3C108.4,103.2,112,108.18,112,117.47Z"/><path class="cls-1" d="M185.44,103.3c7.52,0,11.56,5.61,11.56,16v26c0,10.43-4,16-11.56,16S174,155.8,174,145.37v-26C174,108.91,178,103.3,185.44,103.3Zm0,3.23c-4.73,0-7.44,3.83-7.44,11.73v28.19c0,7.9,2.71,11.73,7.44,11.73s7.56-3.83,7.56-11.73V118.26C193,110.36,190.29,106.53,185.44,106.53Z"/><path class="cls-1" d="M275.44,159.87a11.59,11.59,0,0,1-5.66,1.32c-5.23,0-7.78-3-7.78-8.8V108.5h-5v-3h5v-12h4v12h9v3h-9v43.67c0,4,1.89,5.61,4.78,5.61a6.1,6.1,0,0,0,4.11-1.43Z"/><path class="cls-1" d="M345.44,103.3c7.52,0,11.56,5.61,11.56,16v26c0,10.43-4,16-11.56,16S334,155.8,334,145.37v-26C334,108.91,338,103.3,345.44,103.3Zm0,3.23c-4.73,0-7.44,3.83-7.44,11.73v28.19c0,7.9,2.71,11.73,7.44,11.73s7.56-3.83,7.56-11.73V118.26C353,110.36,350.29,106.53,345.44,106.53Z"/></g></g></svg>